<svg width="150" height="50" viewBox="0 0 150 50" xmlns="http://www.w3.org/2000/svg"><defs><linearGradient x1="100%" y1="74.328%" x2="0%" y2="26.342%" id="a"><stop stop-color="#2B6DF1" offset="0%"/><stop stop-color="#00C4D5" offset="100%"/></linearGradient></defs><g fill="none"><path d="M19.345 15.208L14.5 12.452 3 18.995v5.602l16.345-9.389zm3.026 1.722L3 28.057v3.948l11.5 6.543L26 32.005v-13.01l-3.63-2.065zM14.5 9L29 17.25v16.5L14.5 42 0 33.75v-16.5L14.5 9z" fill="url(#a)"/><path d="M39.63 30.276c0 1.126.472 1.546 1.598 1.546.574 0 1.104-.078 1.809-.298l.389-.122v2.4l-.215.064c-.885.263-1.663.376-2.373.376-2.58 0-3.914-1.299-3.914-3.862v-7.786H35v-2.238h1.924v-3.328h2.732v3.328h3.77v2.238H39.63v7.682zM52.424 20.07c.405 0 .774.035 1.087.113l.227.057v2.594l-.373-.093c-.246-.062-.654-.095-1.045-.095-2.124 0-3.678 1.74-3.678 4.64v6.748h-2.758V20.356h2.68v1.905c.832-1.383 2.233-2.191 3.86-2.191zm8.44 11.96c1.593 0 2.576-.73 3.096-2.242l.07-.202h2.613l-.078.363c-.596 2.776-2.841 4.397-5.701 4.397-3.939 0-6.592-2.793-6.592-7.086 0-4.301 2.693-7.216 6.462-7.216 3.737 0 5.916 2.825 5.916 6.748v1.158h-9.656c.189 2.626 1.597 4.08 3.87 4.08zm-.13-9.644c-1.894 0-3.219 1.188-3.626 3.404h6.822c-.144-2.113-1.27-3.404-3.196-3.404zm7.595 7.499l-.027-.325h2.681l.024.274c.127 1.457 1.427 2.274 3.289 2.274 1.7 0 2.794-.763 2.794-1.936 0-.835-.568-1.326-2.047-1.604l-2.31-.467c-2.567-.475-3.885-1.595-3.885-3.831 0-2.433 2.174-4.226 5.162-4.226 3.188 0 5.145 1.424 5.42 4.039l.035.331h-2.602l-.03-.265c-.136-1.151-1.162-1.841-2.823-1.841-1.58 0-2.56.736-2.56 1.832 0 .875.55 1.294 2.044 1.577l2.601.495c2.389.466 3.623 1.693 3.623 3.856 0 2.474-2.309 4.278-5.396 4.278-3.436 0-5.755-1.606-5.993-4.461zm26.199-2.677c0 4.29-2.652 7.138-6.514 7.138S81.5 31.498 81.5 27.208c0-4.295 2.657-7.164 6.514-7.164s6.514 2.869 6.514 7.164zm-10.296 0c0 3.006 1.427 4.796 3.782 4.796s3.782-1.79 3.782-4.796c0-3.012-1.432-4.822-3.782-4.822s-3.782 1.81-3.782 4.822zm19.502-7.138c.405 0 .774.035 1.087.113l.227.057v2.594l-.373-.093c-.246-.062-.654-.095-1.045-.095-2.124 0-3.678 1.74-3.678 4.64v6.748h-2.758V20.356h2.68v1.905c.832-1.383 2.233-2.191 3.86-2.191zm2.914-1.844V15h3.044v3.226h-3.044zm.156 15.808V20.356h2.758v13.678h-2.758zm9.274-3.758c0 1.126.472 1.546 1.598 1.546.574 0 1.104-.078 1.809-.298l.389-.122v2.4l-.215.064c-.885.263-1.663.376-2.373.376-2.58 0-3.914-1.299-3.914-3.862v-7.786h-1.924v-2.238h1.924v-3.328h2.732v3.328h3.77v2.238h-3.796v7.682z" fill="#345"/></g></svg>